# xmcd
#
# Track frame offsets: 
#        187
#        14142
#        48465
#        65242
#        100327
#        139925
#        164137
#        199357
#        214880
#        243730
#        271705
#
# Disc length: 4351 seconds
#
# Revision: 4
# Processed by: cddbd v1.5.2PL0 Copyright (c) Steve Scherf et al.
# Submitted via: ExactAudioCopy v0.99pb5
#
DISCID=b810fd0b
DTITLE=Jimi Hendrix - Blues
DYEAR=1994
DGENRE=blues
TTITLE0=Hear My Train Comin' (Acoustic)
TTITLE1=Born Under A Bad Sign
TTITLE2=Red House
TTITLE3=Catfish Blues
TTITLE4=Voodoo Chile Blues
TTITLE5=Mannish Boy
TTITLE6=Once I Had A Woman
TTITLE7=Bleeding Heart
TTITLE8=Jam 292
TTITLE9=Electric Church Red House
TTITLE10=Hear My Train Comin' (Electric)
EXTD=
EXTT0=
EXTT1=
EXTT2=
EXTT3=
EXTT4=
EXTT5=
EXTT6=
EXTT7=
EXTT8=
EXTT9=
EXTT10=
PLAYORDER=
